<svg xmlns="http://www.w3.org/2000/svg" viewBox="0 0 1024 1024" width="1024" height="1024"><defs>
<linearGradient id="bg" x1="0" y1="0" x2="0" y2="1"><stop offset="0" stop-color="#080b09"/><stop offset="1" stop-color="#030403"/></linearGradient>
<radialGradient id="win" gradientUnits="userSpaceOnUse" cx="512" cy="571" r="640"><stop offset="0" stop-color="#66E07C" stop-opacity="0.26"/><stop offset="0.6" stop-color="#030504" stop-opacity="1"/></radialGradient>
<linearGradient id="drum" gradientUnits="userSpaceOnUse" x1="0" y1="0" x2="1024" y2="0"><stop offset="0" stop-color="#010201"/><stop offset="0.14" stop-color="#0b100c"/><stop offset="0.4" stop-color="#1d2520"/><stop offset="0.5" stop-color="#222b25"/><stop offset="0.62" stop-color="#1a211c"/><stop offset="0.86" stop-color="#0a0e0b"/><stop offset="1" stop-color="#010201"/></linearGradient>
<radialGradient id="spill" cx="0.5" cy="0" r="0.6"><stop offset="0" stop-color="#66E07C" stop-opacity="0.22"/><stop offset="1" stop-color="#66E07C" stop-opacity="0"/></radialGradient>
<linearGradient id="shade" gradientUnits="userSpaceOnUse" x1="0" y1="590" x2="0" y2="1024"><stop offset="0" stop-color="#000" stop-opacity="0.85"/><stop offset="0.2" stop-color="#000" stop-opacity="0.1"/><stop offset="0.7" stop-color="#000" stop-opacity="0.15"/><stop offset="1" stop-color="#000" stop-opacity="0.8"/></linearGradient>
<linearGradient id="spec" x1="0" y1="0" x2="1" y2="0"><stop offset="0" stop-color="#e8fff0" stop-opacity="0"/><stop offset="0.5" stop-color="#e8fff0" stop-opacity="0.07"/><stop offset="1" stop-color="#e8fff0" stop-opacity="0"/></linearGradient>
<clipPath id="rimclip"><rect x="12" y="12" width="1000" height="1000" rx="192.8"/></clipPath>
<filter id="glow" x="-30%" y="-30%" width="160%" height="160%"><feGaussianBlur stdDeviation="9" result="b"/><feMerge><feMergeNode in="b"/><feMergeNode in="SourceGraphic"/></feMerge></filter>
</defs><rect x="0" y="-300" width="1024" height="1190" fill="url(#bg)"/>
<rect x="0" y="590" width="1024" height="434" fill="#010201"/>
<rect y="590" width="1024" height="434" fill="url(#drum)"/>
<rect x="250" y="590" width="524" height="434" fill="url(#spill)"/>
<rect x="330" y="590" width="200" height="434" fill="url(#spec)"/>
<line x1="-3.9" y1="588" x2="-3.9" y2="1024" stroke="#000" stroke-opacity="0.36" stroke-width="2.7"/><line x1="-1.8" y1="588" x2="-1.8" y2="1024" stroke="#cfe8d6" stroke-opacity="0.004" stroke-width="1.0"/><line x1="14.2" y1="588" x2="14.2" y2="1024" stroke="#000" stroke-opacity="0.41" stroke-width="3.5"/><line x1="16.9" y1="588" x2="16.9" y2="1024" stroke="#cfe8d6" stroke-opacity="0.009" stroke-width="1.4"/><line x1="37.0" y1="588" x2="37.0" y2="1024" stroke="#000" stroke-opacity="0.46" stroke-width="4.3"/><line x1="40.3" y1="588" x2="40.3" y2="1024" stroke="#cfe8d6" stroke-opacity="0.017" stroke-width="1.7"/><line x1="64.3" y1="588" x2="64.3" y2="1024" stroke="#000" stroke-opacity="0.51" stroke-width="5.0"/><line x1="68.2" y1="588" x2="68.2" y2="1024" stroke="#cfe8d6" stroke-opacity="0.028" stroke-width="2.0"/><line x1="95.9" y1="588" x2="95.9" y2="1024" stroke="#000" stroke-opacity="0.55" stroke-width="5.7"/><line x1="100.4" y1="588" x2="100.4" y2="1024" stroke="#cfe8d6" stroke-opacity="0.041" stroke-width="2.2"/><line x1="131.5" y1="588" x2="131.5" y2="1024" stroke="#000" stroke-opacity="0.59" stroke-width="6.4"/><line x1="136.5" y1="588" x2="136.5" y2="1024" stroke="#cfe8d6" stroke-opacity="0.057" stroke-width="2.5"/><line x1="170.7" y1="588" x2="170.7" y2="1024" stroke="#000" stroke-opacity="0.63" stroke-width="7.0"/><line x1="176.1" y1="588" x2="176.1" y2="1024" stroke="#cfe8d6" stroke-opacity="0.074" stroke-width="2.7"/><line x1="213.2" y1="588" x2="213.2" y2="1024" stroke="#000" stroke-opacity="0.66" stroke-width="7.5"/><line x1="219.0" y1="588" x2="219.0" y2="1024" stroke="#cfe8d6" stroke-opacity="0.092" stroke-width="2.9"/><line x1="258.5" y1="588" x2="258.5" y2="1024" stroke="#000" stroke-opacity="0.69" stroke-width="7.9"/><line x1="264.7" y1="588" x2="264.7" y2="1024" stroke="#cfe8d6" stroke-opacity="0.110" stroke-width="3.1"/><line x1="306.2" y1="588" x2="306.2" y2="1024" stroke="#000" stroke-opacity="0.71" stroke-width="8.3"/><line x1="312.7" y1="588" x2="312.7" y2="1024" stroke="#cfe8d6" stroke-opacity="0.126" stroke-width="3.2"/><line x1="355.9" y1="588" x2="355.9" y2="1024" stroke="#000" stroke-opacity="0.73" stroke-width="8.6"/><line x1="362.6" y1="588" x2="362.6" y2="1024" stroke="#cfe8d6" stroke-opacity="0.140" stroke-width="3.4"/><line x1="407.1" y1="588" x2="407.1" y2="1024" stroke="#000" stroke-opacity="0.74" stroke-width="8.8"/><line x1="414.0" y1="588" x2="414.0" y2="1024" stroke="#cfe8d6" stroke-opacity="0.151" stroke-width="3.4"/><line x1="459.3" y1="588" x2="459.3" y2="1024" stroke="#000" stroke-opacity="0.75" stroke-width="9.0"/><line x1="466.3" y1="588" x2="466.3" y2="1024" stroke="#cfe8d6" stroke-opacity="0.158" stroke-width="3.5"/><line x1="512.0" y1="588" x2="512.0" y2="1024" stroke="#000" stroke-opacity="0.75" stroke-width="9.0"/><line x1="519.0" y1="588" x2="519.0" y2="1024" stroke="#cfe8d6" stroke-opacity="0.160" stroke-width="3.5"/><line x1="564.7" y1="588" x2="564.7" y2="1024" stroke="#000" stroke-opacity="0.75" stroke-width="9.0"/><line x1="571.7" y1="588" x2="571.7" y2="1024" stroke="#cfe8d6" stroke-opacity="0.158" stroke-width="3.5"/><line x1="616.9" y1="588" x2="616.9" y2="1024" stroke="#000" stroke-opacity="0.74" stroke-width="8.8"/><line x1="623.8" y1="588" x2="623.8" y2="1024" stroke="#cfe8d6" stroke-opacity="0.151" stroke-width="3.4"/><line x1="668.1" y1="588" x2="668.1" y2="1024" stroke="#000" stroke-opacity="0.73" stroke-width="8.6"/><line x1="674.8" y1="588" x2="674.8" y2="1024" stroke="#cfe8d6" stroke-opacity="0.140" stroke-width="3.4"/><line x1="717.8" y1="588" x2="717.8" y2="1024" stroke="#000" stroke-opacity="0.71" stroke-width="8.3"/><line x1="724.2" y1="588" x2="724.2" y2="1024" stroke="#cfe8d6" stroke-opacity="0.126" stroke-width="3.2"/><line x1="765.5" y1="588" x2="765.5" y2="1024" stroke="#000" stroke-opacity="0.69" stroke-width="7.9"/><line x1="771.7" y1="588" x2="771.7" y2="1024" stroke="#cfe8d6" stroke-opacity="0.110" stroke-width="3.1"/><line x1="810.8" y1="588" x2="810.8" y2="1024" stroke="#000" stroke-opacity="0.66" stroke-width="7.5"/><line x1="816.7" y1="588" x2="816.7" y2="1024" stroke="#cfe8d6" stroke-opacity="0.092" stroke-width="2.9"/><line x1="853.3" y1="588" x2="853.3" y2="1024" stroke="#000" stroke-opacity="0.63" stroke-width="7.0"/><line x1="858.7" y1="588" x2="858.7" y2="1024" stroke="#cfe8d6" stroke-opacity="0.074" stroke-width="2.7"/><line x1="892.5" y1="588" x2="892.5" y2="1024" stroke="#000" stroke-opacity="0.59" stroke-width="6.4"/><line x1="897.5" y1="588" x2="897.5" y2="1024" stroke="#cfe8d6" stroke-opacity="0.057" stroke-width="2.5"/><line x1="928.1" y1="588" x2="928.1" y2="1024" stroke="#000" stroke-opacity="0.55" stroke-width="5.7"/><line x1="932.5" y1="588" x2="932.5" y2="1024" stroke="#cfe8d6" stroke-opacity="0.041" stroke-width="2.2"/><line x1="959.7" y1="588" x2="959.7" y2="1024" stroke="#000" stroke-opacity="0.51" stroke-width="5.0"/><line x1="963.6" y1="588" x2="963.6" y2="1024" stroke="#cfe8d6" stroke-opacity="0.028" stroke-width="2.0"/><line x1="987.0" y1="588" x2="987.0" y2="1024" stroke="#000" stroke-opacity="0.46" stroke-width="4.3"/><line x1="990.3" y1="588" x2="990.3" y2="1024" stroke="#cfe8d6" stroke-opacity="0.017" stroke-width="1.7"/><line x1="1009.8" y1="588" x2="1009.8" y2="1024" stroke="#000" stroke-opacity="0.41" stroke-width="3.5"/><line x1="1012.5" y1="588" x2="1012.5" y2="1024" stroke="#cfe8d6" stroke-opacity="0.009" stroke-width="1.4"/><line x1="1027.9" y1="588" x2="1027.9" y2="1024" stroke="#000" stroke-opacity="0.36" stroke-width="2.7"/><line x1="1029.9" y1="588" x2="1029.9" y2="1024" stroke="#cfe8d6" stroke-opacity="0.004" stroke-width="1.0"/>
<rect x="0" y="590" width="1024" height="434" fill="url(#shade)"/>

<line x1="0" y1="590" x2="1024" y2="590" stroke="#3c4c40" stroke-width="3"/><polygon points="123,-20 313,571 711,571 901,-20" fill="url(#win)" clip-path="url(#rimclip)"/><g filter="url(#glow)"><g fill="none" stroke="#66E07C" stroke-linecap="round" stroke-linejoin="round">
<rect x="376" y="226" width="272" height="190" rx="10" stroke-width="16"/>
<circle cx="448" cy="321" r="40" stroke-width="16"/>
<line x1="540" y1="276" x2="540" y2="368" stroke-width="15"/><line x1="576" y1="276" x2="576" y2="368" stroke-width="15"/><line x1="612" y1="276" x2="612" y2="368" stroke-width="15"/>
<line x1="616" y1="222" x2="574" y2="148" stroke-width="15"/>
</g><circle cx="448" cy="321" r="16" fill="#66E07C"/></g><g filter="url(#glow)" fill="none" stroke="#66E07C" stroke-width="13"><polyline points="123,-20 313,571 711,571 901,-20" stroke-linejoin="round" clip-path="url(#rimclip)"/><rect x="12" y="12" width="1000" height="1000" rx="192.8"/></g></svg>